<svg viewBox="0 0 1051.57 86.46" xmlns="http://www.w3.org/2000/svg"><circle cx="43.23" cy="43.23" fill="#532e1f" r="42.36"/><path d="m43.23 2.4a40.78 40.78 0 0 1 28.87 12 41.1 41.1 0 0 1 5 6 40.87 40.87 0 0 1 3.77 38.72 40.09 40.09 0 0 1 -3.77 6.93 40.58 40.58 0 0 1 -11 11 40.09 40.09 0 0 1 -6.93 3.77 40.75 40.75 0 0 1 -38.77-3.74 40.92 40.92 0 0 1 -14.79-18 40.93 40.93 0 0 1 0-31.78 40.85 40.85 0 0 1 21.73-21.69 40.54 40.54 0 0 1 15.89-3.21m0-2.4a43.23 43.23 0 1 0 43.23 43.23 43.22 43.22 0 0 0 -43.23-43.23z" fill="#f1c500"/><path d="m54.25 22.68v8.83h2.78l-3.8 15.35-5.76-24.18h-8.48l-5.76 24.18-3.8-15.35h2.78v-8.83h-15.64v8.83h2.25l9.57 37.28h8.77l6.07-23.67 6.07 23.67h8.77l9.56-37.28h2.26v-8.83z" fill="#f1c500"/><g fill="#532e1f"><path d="m455.14 30.58-8.3 39.68 11.69.01 8.3-39.69z"/><path d="m479.82 45.57a13.06 13.06 0 0 1 2.81-3.4 11.72 11.72 0 0 1 3.64-2.17 12.43 12.43 0 0 1 4.33-.75 12.16 12.16 0 0 1 2.26.18 9 9 0 0 1 1.58.44 5.47 5.47 0 0 1 1.06.54l.94.63a9.74 9.74 0 0 0 .93.57 3 3 0 0 0 1.41.33 3.51 3.51 0 0 0 1.89-.5 6.39 6.39 0 0 0 1.09-.85l4.73-4.71-.64-.79a12.63 12.63 0 0 0 -2.34-2.2 14.7 14.7 0 0 0 -3.06-1.68 19.55 19.55 0 0 0 -3.7-1.09 22.88 22.88 0 0 0 -4.36-.39 28.2 28.2 0 0 0 -9.14 1.48 27.08 27.08 0 0 0 -7.79 4.15 26 26 0 0 0 -5.85 6.38 23.73 23.73 0 0 0 -3.31 8.1 21.33 21.33 0 0 0 -.26 8 14.59 14.59 0 0 0 2.77 6.51 14.28 14.28 0 0 0 5.66 4.31 20.43 20.43 0 0 0 8.28 1.54 26.1 26.1 0 0 0 9.32-1.58 21.63 21.63 0 0 0 7.43-4.74l.81-.79-3.56-4.42a2.35 2.35 0 0 0 -1-.69 3.19 3.19 0 0 0 -2.33.07 5.28 5.28 0 0 0 -1.07.57 14.18 14.18 0 0 1 -1.69 1 9.51 9.51 0 0 1 -1.63.64 8.91 8.91 0 0 1 -1.78.35 18.53 18.53 0 0 1 -2.19.11 8.32 8.32 0 0 1 -3.46-.69 6.11 6.11 0 0 1 -2.45-2 7.5 7.5 0 0 1 -1.29-3.3 12.84 12.84 0 0 1 .22-4.67 14.92 14.92 0 0 1 1.74-4.49z"/><path d="m536.78 30.58-3.26 15.59h-13.76l3.26-15.59h-11.69l-8.3 39.68h11.69l3.3-15.77h13.76l-3.3 15.77 11.69.01 8.31-39.69z"/><path d="m553.48 30.58-8.3 39.68 11.69.01 8.3-39.69z"/><path d="m595.46 68a29.78 29.78 0 0 0 3.73-1.9l.52-.31 3.69-17.62h-16.56l-1.22 5.83a2.29 2.29 0 0 0 .52 2.07 2.67 2.67 0 0 0 2.08.78h2.6l-.76 3.61c-.66.2-1.35.38-2 .52a16.39 16.39 0 0 1 -3.21.28 10.21 10.21 0 0 1 -4-.74 6.65 6.65 0 0 1 -2.73-2.09 7.83 7.83 0 0 1 -1.47-3.43 13.37 13.37 0 0 1 .22-4.85 15.3 15.3 0 0 1 1.68-4.5 13 13 0 0 1 2.74-3.4 11.92 11.92 0 0 1 3.63-2.17 12.41 12.41 0 0 1 4.4-.77 20.67 20.67 0 0 1 2.35.12 10.27 10.27 0 0 1 1.85.37 10.67 10.67 0 0 1 1.65.65c.54.28 1.13.62 1.73 1a3.87 3.87 0 0 0 4 .25 5.38 5.38 0 0 0 1.49-1.15l4.23-4.64-.69-.75a14.27 14.27 0 0 0 -2.48-2.16 16.14 16.14 0 0 0 -3.26-1.7 21.59 21.59 0 0 0 -4-1.11 26.55 26.55 0 0 0 -4.8-.4 29.65 29.65 0 0 0 -9.39 1.44 27.09 27.09 0 0 0 -7.86 4.16 24.51 24.51 0 0 0 -9.06 14.48 18.71 18.71 0 0 0 -.08 8.13 15.1 15.1 0 0 0 3.22 6.49 16 16 0 0 0 6 4.28 21 21 0 0 0 8.22 1.53 47.08 47.08 0 0 0 4.72-.23 31.84 31.84 0 0 0 4.3-.75 28.51 28.51 0 0 0 4-1.32z"/><path d="m635.15 30.58h-11.06l-24.69 39.68h9.17a5 5 0 0 0 2.75-.78 5.32 5.32 0 0 0 1.81-1.78l3.31-5.81h13.44l.85 5.61a3.09 3.09 0 0 0 1.18 2 4 4 0 0 0 2.55.75h8.77l-7.91-38.84zm-14 23.05 4.85-8.45c.34-.54.72-1.17 1.12-1.87l.24 1.57 1.3 8.75z"/><path d="m680.41 30.58-4.35 20.8c0 .23-.1.46-.14.69l-12.48-19.68a5.12 5.12 0 0 0 -.66-.84 2.66 2.66 0 0 0 -.85-.61 3.19 3.19 0 0 0 -1-.29c-.31 0-.68-.05-1.11-.05h-5.94l-8.3 39.68h10.54l4.41-21.06c0-.13 0-.25.08-.39l12.38 19.52a3.85 3.85 0 0 0 1.64 1.53 5.39 5.39 0 0 0 2.21.4h5.88l8.28-39.7z"/><path d="m440.81 14.2a4.05 4.05 0 0 0 -1.48.27 4.28 4.28 0 0 0 -1.33.83 7.49 7.49 0 0 0 -1.14 1.35l-18.17 27.17c-.65 1-1.31 2-1.95 3a3.45 3.45 0 0 0 -.2.32v-.06c-.21-1-.44-2-.69-3l-6.85-27.26a4.59 4.59 0 0 0 -.61-1.42 2.72 2.72 0 0 0 -1.08-.92 3.38 3.38 0 0 0 -1.43-.29h-11l-11.69 56.07h12.36l6.52-31.14 5.76 22.2.09.31 1.08 4.07h7.41l2.32-3.3a10.49 10.49 0 0 0 .69-.89l1.51-2.24.46-.65 13.09-19.35-6.49 31h12.36l11.65-56.07z"/><path d="m130.87 37 1.49 32.66h11.36l26.53-55.16h-10a5.77 5.77 0 0 0 -3.26 1.2 5.93 5.93 0 0 0 -2 2.39l-12.14 27.41-.12.27v-.08l-1.25-25-.31-6.17h-10.62l-2.3 5.12-12.39 25.65c-.06.14-.13.27-.19.41v-.15l-.32-27.55c0-2-1.53-3.63-4-3.63h-9.63l2.21 55.23h11.27z"/><path d="m158.02 69.61h28.02l1.89-9.03h-16.33l1.36-6.52h12.51l1.84-8.77h-12.51l1.32-6.34 16.33.01 1.89-9.03-28.02-.01z"/><path d="m209.48 60.2a6.25 6.25 0 0 1 -3.42.83 7.73 7.73 0 0 1 -2.71-.41 11.65 11.65 0 0 1 -2-1l-1.64-1.07a4 4 0 0 0 -3.94-.26 4.31 4.31 0 0 0 -1.46 1.08l-4.31 4.87.63.74a11.63 11.63 0 0 0 2.57 2.19 18.58 18.58 0 0 0 3.24 1.65 22.09 22.09 0 0 0 3.71 1.07 20.91 20.91 0 0 0 3.93.37 20.93 20.93 0 0 0 6.65-1 18.7 18.7 0 0 0 5.43-2.85 16.8 16.8 0 0 0 3.92-4.29 15.91 15.91 0 0 0 2.14-5.27 10 10 0 0 0 .06-4.49 7.83 7.83 0 0 0 -1.64-3.24 9.42 9.42 0 0 0 -2.72-2.12 27.33 27.33 0 0 0 -3.13-1.35c-1-.37-2.09-.71-3.11-1a18.3 18.3 0 0 1 -2.48-.93 4 4 0 0 1 -1.38-1 1 1 0 0 1 -.16-1 3 3 0 0 1 1.31-2 5.8 5.8 0 0 1 3.33-.8 7 7 0 0 1 2.24.32 9.35 9.35 0 0 1 1.73.75l1.45.82a3.69 3.69 0 0 0 3.72 0 6 6 0 0 0 1.39-1.2l3.83-4.91-.65-.69a11.26 11.26 0 0 0 -2.29-1.82 15.52 15.52 0 0 0 -2.84-1.35 18.43 18.43 0 0 0 -3.33-.85 23.11 23.11 0 0 0 -3.69-.28 20 20 0 0 0 -6.42 1 18.9 18.9 0 0 0 -5.19 2.7 15.89 15.89 0 0 0 -3.71 3.9 13.1 13.1 0 0 0 -1.95 4.55 11.63 11.63 0 0 0 -.15 4.87 7.81 7.81 0 0 0 1.56 3.47 8.65 8.65 0 0 0 2.75 2.18 20.36 20.36 0 0 0 3.16 1.3c1.05.34 2.09.65 3.1.92a15.34 15.34 0 0 1 2.45.88 3.38 3.38 0 0 1 1.32 1 1.52 1.52 0 0 1 .15 1.25 3.54 3.54 0 0 1 -1.45 2.47z"/><path d="m233.25 69.66h11.64l6.37-30.45h11.19l1.94-9.23h-34.03l-1.93 9.23h11.19z"/><path d="m287.58 69.67 1.9-9.03-16.34-.01 1.37-6.51h12.5l1.84-8.77-12.51-.01 1.33-6.33h16.33l1.89-9.03h-28.02l-8.31 39.68z"/><path d="m303 69.67 2.89-13.81h1.27a2.08 2.08 0 0 1 1 .16 1 1 0 0 1 .37.52l4.35 10.83c.42 1 1.46 2.3 4 2.3h10.36l-6.52-14.73a5.91 5.91 0 0 0 -1.24-1.83 19.15 19.15 0 0 0 1.9-1 17.06 17.06 0 0 0 3.29-2.67 14.8 14.8 0 0 0 2.39-3.28 14.28 14.28 0 0 0 1.36-3.77 11.54 11.54 0 0 0 0-4.89 7.78 7.78 0 0 0 -2.38-4.06 12.23 12.23 0 0 0 -4.91-2.55 27.55 27.55 0 0 0 -7.5-.88h-14l-8.31 39.69zm6.45-30.84h2.64c2 0 3.5.38 4.23 1.08a2.84 2.84 0 0 1 .61 2.84 6.62 6.62 0 0 1 -.72 1.92 4.85 4.85 0 0 1 -1.27 1.45 6.17 6.17 0 0 1 -2 1 10.09 10.09 0 0 1 -2.92.38h-2.39z"/><path d="m340.4 69.67 4.41-21.06c0-.13.05-.26.08-.39l12.38 19.52a3.82 3.82 0 0 0 1.64 1.52 5.35 5.35 0 0 0 2.21.41h5.88l8.3-39.67h-10.54l-4.35 20.81c-.05.22-.1.45-.14.69l-12.48-19.7a6.34 6.34 0 0 0 -.65-.83 3 3 0 0 0 -.86-.62 3.59 3.59 0 0 0 -1-.28 9.52 9.52 0 0 0 -1.18-.07h-5.94l-8.3 39.69z"/><path d="m739.72 15.87-7 33.15a20.33 20.33 0 0 1 -1.72 4.98 14 14 0 0 1 -2.68 3.68 11 11 0 0 1 -3.5 2.27 10.21 10.21 0 0 1 -4.21.77 8.63 8.63 0 0 1 -3.81-.72 5.88 5.88 0 0 1 -2.4-2.21 8.57 8.57 0 0 1 -1.08-3.6 17.2 17.2 0 0 1 .39-5l7-33.4-13.42-.07-7 33.15a27 27 0 0 0 -.45 9.55 17.24 17.24 0 0 0 3 7.62 15.61 15.61 0 0 0 6.26 5 22.4 22.4 0 0 0 9.21 1.82h.17a27.35 27.35 0 0 0 9.69-1.7 26.93 26.93 0 0 0 8.2-4.84 28.87 28.87 0 0 0 6.1-7.45 32.48 32.48 0 0 0 3.58-9.49l7-33.43z"/><path d="m781.67 30.45-4.24 21.32c-.1.51-.2 1-.28 1.61l-13.31-21.18a6.34 6.34 0 0 0 -.66-.85 2.7 2.7 0 0 0 -.84-.62 3.36 3.36 0 0 0 -1-.29 9.18 9.18 0 0 0 -1.15-.06h-5.75l-8.11 40.72h10.25l4.3-21.57c.08-.41.16-.84.23-1.29l13.2 21a3.83 3.83 0 0 0 1.62 1.54 5 5 0 0 0 2.18.42h5.7l8.1-40.72z"/><path d="m789.44 71.17 11.43.04 8.1-40.72-11.42-.04z"/><path d="m843.91 30.51a4.39 4.39 0 0 0 -2.5.76 4.88 4.88 0 0 0 -1.58 1.67l-11.3 20.77c-.5.92-1 1.91-1.54 3l-.06.13c-.14-1-.28-2-.44-2.83l-3.49-20.85a3.19 3.19 0 0 0 -1.11-2 3.64 3.64 0 0 0 -2.4-.77h-8.33l8.49 40.78h9.37l23.78-40.66z"/><path d="m862.34 54.97 12.8.04 1.7-8.54-12.8-.05 1.43-7.18 16.71.06 1.76-8.81-28.14-.1-8.11 40.72 28.14.1 1.76-8.81-16.72-.06z"/><path d="m909.19 54.41-.22-.2a17.51 17.51 0 0 0 2.39-1.28 16.52 16.52 0 0 0 3.26-2.69 14.4 14.4 0 0 0 3.68-7.13 11.93 11.93 0 0 0 0-5 8.05 8.05 0 0 0 -2.4-4.11 12.37 12.37 0 0 0 -5-2.64 27.85 27.85 0 0 0 -7.63-.94h-14l-8.11 40.72h11.37l2.86-14.37h1.61a2.31 2.31 0 0 1 1.14.2 1.16 1.16 0 0 1 .45.61l4.52 11.3c.42 1 1.45 2.3 3.94 2.31h10l-6.56-14.87a6 6 0 0 0 -1.3-1.91zm-10.27-15.41h3c2.18 0 3.68.41 4.46 1.19a3.23 3.23 0 0 1 .69 3.15 7 7 0 0 1 -.76 2.11 5.54 5.54 0 0 1 -1.41 1.65 6.5 6.5 0 0 1 -2.18 1.12 9.81 9.81 0 0 1 -3 .41h-2.72z"/><path d="m936.84 39.5a6.17 6.17 0 0 1 3.58-.89 7.16 7.16 0 0 1 2.36.35 10.88 10.88 0 0 1 1.8.8l1.5.86a3.63 3.63 0 0 0 1.79.53 3.29 3.29 0 0 0 1.73-.46 5.4 5.4 0 0 0 1.3-1.15l3.7-4.85-.55-.58a11.15 11.15 0 0 0 -2.32-1.88 16.13 16.13 0 0 0 -2.89-1.4 18.07 18.07 0 0 0 -3.37-.89 23 23 0 0 0 -3.75-.3 20.67 20.67 0 0 0 -6.45 1 18 18 0 0 0 -5.17 2.73 15.48 15.48 0 0 0 -3.67 3.93 13.18 13.18 0 0 0 -1.9 4.59 12.19 12.19 0 0 0 -.13 5 8.3 8.3 0 0 0 1.63 3.49 8.74 8.74 0 0 0 2.79 2.25 22 22 0 0 0 3.21 1.35c1.08.36 2.14.68 3.18 1a16 16 0 0 1 2.54.94 3.65 3.65 0 0 1 1.46 1.08 1.85 1.85 0 0 1 .18 1.48 4.11 4.11 0 0 1 -1.7 2.82 6.62 6.62 0 0 1 -3.65.91 8.33 8.33 0 0 1 -2.86-.45 12.58 12.58 0 0 1 -2.08-1l-1.69-1.12a3.69 3.69 0 0 0 -2.11-.67 3.85 3.85 0 0 0 -1.65.37 3.91 3.91 0 0 0 -1.33 1l-4.16 4.81.52.61a11.62 11.62 0 0 0 2.55 2.24 18.45 18.45 0 0 0 3.31 1.72 21.4 21.4 0 0 0 3.77 1.11 20.84 20.84 0 0 0 4 .41h.08a20.69 20.69 0 0 0 6.62-1 18.18 18.18 0 0 0 5.41-2.88 16.78 16.78 0 0 0 3.85-4.36 16.15 16.15 0 0 0 2.1-5.35 10.31 10.31 0 0 0 0-4.56 8.23 8.23 0 0 0 -1.67-3.31 9.32 9.32 0 0 0 -2.79-2.2 25.31 25.31 0 0 0 -3.19-1.41c-1.08-.39-2.13-.75-3.18-1.07a17.89 17.89 0 0 1 -2.56-1 4.14 4.14 0 0 1 -1.44-1.1 1.28 1.28 0 0 1 -.21-1.17 3.6 3.6 0 0 1 1.51-2.33z"/><path d="m951.36 71.17 11.42.04 8.11-40.72-11.43-.04z"/><path d="m971.92 39.44 11.46.04-6.31 31.69 11.37.04 6.31-31.69 11.46.03 1.79-9.02-34.28-.12z"/><path d="m1041.21 30.51a5 5 0 0 0 -1.41.21 5.27 5.27 0 0 0 -1.17.56 6.06 6.06 0 0 0 -.94.73 5.33 5.33 0 0 0 -.72.83l-9.7 13.75c-.11.16-.22.31-.32.47l-.06-.18-4.29-13.88a4.19 4.19 0 0 0 -1.17-1.82 3.63 3.63 0 0 0 -2.47-.79h-9.75l10.4 25.17-3.11 15.61h11.37l3.05-15.3 20.65-25.37z"/></g></svg>